<mxfile host="Electron" agent="Mozilla/5.0 (Windows NT 10.0; Win64; x64) AppleWebKit/537.36 (KHTML, like Gecko) draw.io/24.7.8 Chrome/128.0.6613.36 Electron/32.0.1 Safari/537.36" version="24.7.8">
  <diagram name="Page-1" id="EqyWSA_jze-9thadcYyX">
    <mxGraphModel dx="1035" dy="967" grid="1" gridSize="10" guides="1" tooltips="1" connect="1" arrows="1" fold="1" page="1" pageScale="1" pageWidth="850" pageHeight="1100" math="0" shadow="0">
      <root>
        <mxCell id="0" />
        <mxCell id="1" parent="0" />
        <mxCell id="UgLC4bbLGVJdMXsWS_Sg-12" value="Client Apps" style="rounded=0;whiteSpace=wrap;html=1;verticalAlign=top;fillColor=none;strokeWidth=2;" vertex="1" parent="1">
          <mxGeometry x="190" y="310" width="180" height="340" as="geometry" />
        </mxCell>
        <mxCell id="UgLC4bbLGVJdMXsWS_Sg-9" style="edgeStyle=orthogonalEdgeStyle;rounded=0;orthogonalLoop=1;jettySize=auto;html=1;entryX=0.5;entryY=0;entryDx=0;entryDy=0;startArrow=classic;startFill=1;" edge="1" parent="1" source="UgLC4bbLGVJdMXsWS_Sg-2" target="UgLC4bbLGVJdMXsWS_Sg-4">
          <mxGeometry relative="1" as="geometry" />
        </mxCell>
        <mxCell id="UgLC4bbLGVJdMXsWS_Sg-2" value="&lt;div&gt;&lt;span style=&quot;background-color: initial;&quot;&gt;Spring MVC&lt;/span&gt;&lt;br&gt;&lt;/div&gt;" style="rounded=0;whiteSpace=wrap;html=1;fillColor=#d5e8d4;strokeColor=#82b366;" vertex="1" parent="1">
          <mxGeometry x="220" y="350" width="120" height="60" as="geometry" />
        </mxCell>
        <mxCell id="UgLC4bbLGVJdMXsWS_Sg-4" value="Zip code Service (External)" style="rounded=0;whiteSpace=wrap;html=1;fillColor=#dae8fc;strokeColor=#6c8ebf;" vertex="1" parent="1">
          <mxGeometry x="585" y="450" width="120" height="60" as="geometry" />
        </mxCell>
        <mxCell id="UgLC4bbLGVJdMXsWS_Sg-11" style="edgeStyle=orthogonalEdgeStyle;rounded=0;orthogonalLoop=1;jettySize=auto;html=1;entryX=0;entryY=0.5;entryDx=0;entryDy=0;startArrow=classic;startFill=1;" edge="1" parent="1" source="UgLC4bbLGVJdMXsWS_Sg-7" target="UgLC4bbLGVJdMXsWS_Sg-4">
          <mxGeometry relative="1" as="geometry" />
        </mxCell>
        <mxCell id="UgLC4bbLGVJdMXsWS_Sg-7" value="C# App" style="rounded=0;whiteSpace=wrap;html=1;fillColor=#d5e8d4;strokeColor=#82b366;" vertex="1" parent="1">
          <mxGeometry x="220" y="450" width="120" height="60" as="geometry" />
        </mxCell>
        <mxCell id="UgLC4bbLGVJdMXsWS_Sg-10" style="edgeStyle=orthogonalEdgeStyle;rounded=0;orthogonalLoop=1;jettySize=auto;html=1;entryX=0.5;entryY=1;entryDx=0;entryDy=0;startArrow=classic;startFill=1;" edge="1" parent="1" source="UgLC4bbLGVJdMXsWS_Sg-8" target="UgLC4bbLGVJdMXsWS_Sg-4">
          <mxGeometry relative="1" as="geometry" />
        </mxCell>
        <mxCell id="UgLC4bbLGVJdMXsWS_Sg-8" value="Iphone App" style="rounded=0;whiteSpace=wrap;html=1;fillColor=#d5e8d4;strokeColor=#82b366;" vertex="1" parent="1">
          <mxGeometry x="220" y="550" width="120" height="60" as="geometry" />
        </mxCell>
      </root>
    </mxGraphModel>
  </diagram>
</mxfile>
